<svg width="17" height="17" viewBox="0 0 17 17" fill="none" xmlns="http://www.w3.org/2000/svg">
<path d="M16.7406 8.76861C16.7406 8.20332 16.6947 7.63498 16.5969 7.07886L8.75317 7.07886L8.75317 10.2811H13.2449C13.0585 11.3139 12.4596 12.2276 11.5827 12.8081V14.886H14.2625C15.8361 13.4376 16.7406 11.2987 16.7406 8.76861Z" fill="#757492"/>
<path d="M8.75451 16.8931C10.9973 16.8931 12.8888 16.1567 14.2668 14.8856L11.5871 12.8078C10.8415 13.315 9.87898 13.6022 8.75756 13.6022C6.58807 13.6022 4.74859 12.1386 4.08858 10.1708H1.32324L1.32324 12.3128C2.73494 15.1209 5.61028 16.8931 8.75451 16.8931V16.8931Z" fill="#757492"/>
<path d="M4.08511 10.1725C3.73677 9.1397 3.73677 8.02135 4.08511 6.98855L4.08511 4.84656L1.32283 4.84656C0.143365 7.19633 0.143365 9.96472 1.32283 12.3145L4.08511 10.1725V10.1725Z" fill="#757492"/>
<path d="M8.75402 3.55391C9.9396 3.53558 11.0855 3.9817 11.9441 4.80061L14.3183 2.42639C12.8149 1.01469 10.8196 0.238567 8.75402 0.263012C5.60979 0.263012 2.73445 2.03527 1.32275 4.84644L4.08503 6.98843C4.74199 5.01756 6.58453 3.55391 8.75402 3.55391V3.55391Z" fill="#757492"/>
</svg>
