<svg width="11" height="10" viewBox="0 0 11 10" fill="none" xmlns="http://www.w3.org/2000/svg">
<path d="M2.37468 1.24767C2.37468 1.82536 1.91036 2.29344 1.33727 2.29344C0.764192 2.29344 0.29987 1.82536 0.29987 1.24767C0.29987 0.670409 0.764192 0.201904 1.33727 0.201904C1.91036 0.201904 2.37468 0.670409 2.37468 1.24767ZM2.38304 3.13006L0.291504 3.13006L0.291504 9.82299H2.38304L2.38304 3.13006ZM5.72198 3.13006L3.64382 3.13006L3.64382 9.82299H5.7224L5.7224 6.30962C5.7224 4.35612 8.24438 4.19633 8.24438 6.30962L8.24438 9.82299L10.3309 9.82299L10.3309 5.58511C10.3309 2.28884 6.59875 2.4089 5.72198 4.03151V3.13006Z" fill="white"/>
</svg>
