<svg width="63" height="25" viewBox="0 0 63 25" fill="none" xmlns="http://www.w3.org/2000/svg">
<path d="M41.4453 15.952H40.129L36.7525 10.5777V15.952H35.4362V8.377H36.7525L40.1394 13.7721V8.377H41.4453V15.952ZM45.3577 16.0561C44.5565 16.0561 43.9061 15.8046 43.4067 15.3017C42.9107 14.7953 42.6627 14.1224 42.6627 13.2831V13.127C42.6627 12.5651 42.7702 12.0639 42.9853 11.6234C43.2038 11.1795 43.509 10.8344 43.9009 10.5881C44.2929 10.3419 44.7299 10.2187 45.212 10.2187C45.9785 10.2187 46.5699 10.4633 46.9861 10.9523C47.4058 11.4413 47.6156 12.1333 47.6156 13.0281V13.538H43.9373C43.9755 14.0028 44.1298 14.3704 44.4004 14.641C44.6744 14.9115 45.0178 15.0468 45.4305 15.0468C46.0097 15.0468 46.4814 14.8127 46.8456 14.3444L47.5272 14.9947C47.3017 15.3312 47 15.593 46.6219 15.7803C46.2473 15.9642 45.8259 16.0561 45.3577 16.0561ZM45.2068 11.2332C44.8599 11.2332 44.579 11.3546 44.364 11.5974C44.1524 11.8402 44.0171 12.1784 43.9582 12.6119H46.367V12.5183C46.3392 12.0951 46.2265 11.7761 46.0288 11.561C45.8311 11.3425 45.5571 11.2332 45.2068 11.2332ZM51.965 15.952C51.9095 15.8445 51.8609 15.6694 51.8193 15.4266C51.417 15.8462 50.9245 16.0561 50.3418 16.0561C49.7764 16.0561 49.3151 15.8948 48.9579 15.5722C48.6006 15.2497 48.422 14.8508 48.422 14.3756C48.422 13.7756 48.644 13.316 49.0879 12.9969C49.5354 12.6744 50.1736 12.5131 51.0025 12.5131L51.7777 12.5131V12.1437C51.7777 11.8524 51.6962 11.62 51.5332 11.4466C51.3702 11.2697 51.1222 11.1812 50.7892 11.1812C50.5013 11.1812 50.2655 11.2541 50.0816 11.3997C49.8978 11.5419 49.8059 11.724 49.8059 11.946L48.5417 11.946C48.5417 11.6373 48.644 11.3494 48.8486 11.0824C49.0533 10.8118 49.3307 10.6003 49.681 10.4476C50.0348 10.295 50.4285 10.2187 50.862 10.2187C51.521 10.2187 52.0465 10.3852 52.4384 10.7182C52.8304 11.0477 53.0315 11.5125 53.0419 12.1125V14.6514C53.0419 15.1578 53.113 15.5618 53.2552 15.8636V15.952L51.965 15.952ZM50.5759 15.0416C50.8256 15.0416 51.0597 14.9809 51.2783 14.8595C51.5002 14.7381 51.6667 14.5751 51.7777 14.3704V13.3091L51.0962 13.3091C50.6279 13.3091 50.2759 13.3906 50.04 13.5536C49.8042 13.7166 49.6862 13.9473 49.6862 14.2456C49.6862 14.4884 49.766 14.6826 49.9256 14.8283C50.0886 14.9705 50.3054 15.0416 50.5759 15.0416ZM57.3133 11.4778C57.1468 11.45 56.9751 11.4361 56.7982 11.4361C56.219 11.4361 55.8288 11.6581 55.6276 12.1021V15.952H54.3634V10.3228H55.5704L55.6016 10.9523C55.9069 10.4633 56.33 10.2187 56.8711 10.2187C57.0514 10.2187 57.2006 10.243 57.3185 10.2916L57.3133 11.4778Z" fill="white"/>
<rect x="0.530518" y="0.170166" width="24.655" height="24.655" rx="1.89654" fill="white"/>
<path d="M9.90074 16.8701H6.95142L9.90074 6.59302L12.7484 6.59302L14.579 12.0901L16.1553 6.59302L19.1555 6.59302L16.1553 16.8701H13.2569L11.4262 11.3731L9.90074 16.8701Z" fill="#201F6A"/>
</svg>
