<svg width="11" height="9" viewBox="0 0 11 9" fill="none" xmlns="http://www.w3.org/2000/svg">
<path d="M10.5609 1.37573C10.1915 1.53254 9.79452 1.63847 9.37793 1.68613C9.80315 1.44217 10.1298 1.05587 10.2835 0.595541C9.88553 0.82148 9.44475 0.985492 8.97555 1.07389C8.59988 0.690758 8.06458 0.451416 7.47215 0.451416C6.33469 0.451416 5.41242 1.33398 5.41242 2.4226C5.41242 2.57711 5.43064 2.72757 5.46578 2.87184C3.75396 2.78964 2.2363 2.00484 1.22041 0.812207C1.04312 1.10334 0.941516 1.44194 0.941516 1.80321C0.941516 2.48712 1.30514 3.09048 1.85781 3.44397C1.52019 3.43373 1.20259 3.34505 0.924901 3.19742C0.924667 3.20563 0.924667 3.21389 0.924667 3.22221C0.924667 4.17727 1.63465 4.97394 2.5769 5.15515C2.40407 5.20022 2.22211 5.22429 2.03427 5.22429C1.90155 5.22429 1.77255 5.21189 1.64675 5.18893C1.90888 5.97205 2.66952 6.54197 3.57086 6.55782C2.86594 7.08656 1.97785 7.40172 1.01281 7.40172C0.84656 7.40172 0.682617 7.39235 0.521484 7.37414C1.43301 7.93349 2.51566 8.25983 3.67883 8.25983C7.46735 8.25983 9.53913 5.25614 9.53913 2.65114C9.53913 2.56567 9.53712 2.48069 9.53316 2.39609C9.93554 2.11821 10.2847 1.77107 10.5608 1.37573H10.5609Z" fill="white"/>
</svg>
